<svg width="902" height="699" viewBox="0 0 902 699" fill="none" xmlns="http://www.w3.org/2000/svg">
<path d="M252.08 552.127C135.381 527.595 88.93 512.183 59.382 467.83C31.257 425.612 18.882 357.827 47.698 319.823C68.847 291.932 94.855 302.936 130.44 271.86C138.065 265.201 143.662 259.357 148.252 252.135C183.432 196.765 94.682 119.757 119.754 68.604C127.711 52.369 193.642 41.46 325.181 20.306C353.861 15.694 375.919 12.989 404.02 19.717C457.72 32.572 469.493 88.96 495.9 84.301C520.212 80.012 514.676 35.668 548.562 12.316C593.793 -18.855 666.576 16.792 671.73 19.394C736.102 51.897 759.131 118.32 787.728 204.925C824.027 314.851 853.077 399.543 810.603 477.006C775.008 541.925 712.631 569.102 679.116 583.324C590.938 620.741 477.258 599.463 252.08 552.127Z" fill="#FF9A3C"/>
<path d="M686.984 142.312L584.524 118.12L540.746 181.98L549.185 215.34L507.247 208.692L469.377 216.787L462.445 235.712C441.58 195.073 422.284 154.128 406.284 118.12C406.284 132.232 346.253 164.417 270.436 174.568C243.913 231.016 18.7529 545.73 18.7529 545.73L794.983 544.118L686.984 142.312Z" fill="#FF9A3C"/>
<path opacity="0.4" d="M448.889 208.84L474.509 258.827L489.616 267.368L515.595 264.243H551.435L584.523 299.648L606.391 294.843C606.391 294.843 621.228 293.934 632.607 292.49V233.032L523.781 172.552L448.889 208.84Z" fill="#FEF9EF"/>
<path opacity="0.14" d="M448.889 208.84L469.377 198.913L526.494 349.05C526.494 349.049 457.517 237.022 448.889 208.84Z" fill="#686868"/>
<path d="M584.524 302.673C583.696 302.673 582.893 302.332 582.316 301.713L550.123 267.268H515.777L489.978 270.37C489.338 270.446 488.689 270.318 488.128 270L473.021 261.459C472.506 261.168 472.088 260.733 471.819 260.207L446.198 210.219C445.827 209.495 445.763 208.651 446.022 207.88C446.28 207.108 446.839 206.473 447.57 206.118L522.464 169.83C523.35 169.4 524.39 169.43 525.252 169.909L634.077 230.389C635.037 230.922 635.633 231.934 635.633 233.032V292.49C635.633 294.013 634.501 295.298 632.99 295.49C622.429 296.83 608.773 297.722 606.814 297.846L585.173 302.602C584.958 302.649 584.74 302.673 584.524 302.673ZM515.596 261.221H551.436C552.274 261.221 553.074 261.568 553.645 262.18L585.557 296.326L605.742 291.891C605.895 291.858 606.05 291.836 606.206 291.827C606.342 291.818 618.888 291.041 629.583 289.811V234.812L523.685 175.959L452.989 210.213L476.785 256.642L490.239 264.249L515.233 261.243C515.355 261.228 515.475 261.221 515.596 261.221Z" fill="#0D1F2D"/>
<path opacity="0.4" d="M241.979 222.603L257.649 245.854L346.254 227.621L391.923 264.244L431.467 253.146L469.377 249.089C445.858 204.128 424.041 158.082 406.285 118.118C406.285 132.23 346.254 164.415 270.437 174.566C265.951 184.115 255.778 201.055 241.979 222.603Z" fill="#FEF9EF"/>
<path d="M391.923 267.269C391.243 267.269 390.574 267.039 390.031 266.603L345.471 230.87L258.258 248.815C257.056 249.061 255.826 248.56 255.141 247.543L239.472 224.293C238.798 223.293 238.782 221.987 239.432 220.972C254.033 198.169 263.544 182.124 267.699 173.282C268.136 172.351 269.016 171.707 270.034 171.57C315.698 165.457 349.475 152.345 365.544 145.074C393.215 132.554 403.26 122.095 403.26 118.12C403.26 116.692 404.259 115.458 405.656 115.161C407.057 114.863 408.468 115.587 409.047 116.891C422.974 148.236 445.212 196.373 472.056 247.687C472.519 248.574 472.514 249.633 472.043 250.515C471.571 251.397 470.693 251.989 469.698 252.095L432.04 256.125L392.738 267.155C392.47 267.231 392.196 267.269 391.923 267.269ZM346.254 224.598C346.936 224.598 347.605 224.829 348.146 225.263L392.602 260.913L430.651 250.236C430.813 250.19 430.979 250.158 431.146 250.141L464.645 246.555C440.348 199.851 419.965 156.089 406.294 125.564C404.329 128.173 401.408 130.95 397.545 133.876C390.346 139.329 380.143 145.106 368.038 150.584C351.857 157.906 318.067 171.038 272.456 177.344C267.997 186.422 258.974 201.613 245.596 222.559L259.024 242.482L345.644 224.659C345.847 224.618 346.052 224.598 346.254 224.598Z" fill="#0D1F2D"/>
<path d="M18.7531 548.754C17.6211 548.754 16.5839 548.122 16.0647 547.115C15.5446 546.107 15.6333 544.893 16.2936 543.97C18.5434 540.826 241.596 228.838 267.7 173.282C268.137 172.351 269.017 171.707 270.035 171.57C315.699 165.457 349.476 152.345 365.545 145.074C393.216 132.554 403.261 122.095 403.261 118.12C403.261 116.692 404.26 115.458 405.657 115.161C407.058 114.863 408.469 115.587 409.048 116.891C427.036 157.377 463.491 236.117 505.518 308.604C546.584 379.434 581.434 424.661 609.097 443.031C610.489 443.954 610.868 445.831 609.944 447.222C609.021 448.614 607.143 448.993 605.753 448.069C577.307 429.182 541.823 383.279 500.287 311.637C460.176 242.458 425.143 167.639 406.295 125.563C404.33 128.172 401.41 130.949 397.546 133.875C390.347 139.328 380.144 145.105 368.039 150.583C351.858 157.905 318.069 171.037 272.458 177.343C244.808 233.683 53.801 501.853 24.6398 542.692L791.042 541.1L684.533 144.84L585.847 121.539L543.241 183.689C542.295 185.066 540.413 185.418 539.036 184.474C537.659 183.529 537.308 181.647 538.252 180.269L582.031 116.409C582.736 115.38 584.002 114.891 585.22 115.176L687.68 139.368C688.762 139.624 689.617 140.452 689.906 141.526L797.905 543.333C798.148 544.239 797.957 545.209 797.386 545.955C796.814 546.702 795.93 547.14 794.99 547.142L18.7591 548.754C18.7571 548.754 18.7551 548.754 18.7531 548.754Z" fill="#0D1F2D"/>
<path opacity="0.14" d="M594.097 208.69L638.539 221.682L646.743 236.1L687.222 345.737L632.608 343.148V233.032L594.097 208.69Z" fill="#686868"/>
<path opacity="0.4" d="M643.161 191.182L662.813 180.595L689.014 220.99L717.399 255.468L686.985 142.312L584.524 118.12L553.974 162.684L567.885 172.552H613.684L643.161 191.182Z" fill="#FEF9EF"/>
<path d="M717.4 258.492C716.519 258.492 715.655 258.107 715.064 257.39L686.679 222.912C686.607 222.824 686.539 222.731 686.477 222.636L661.794 184.581L644.596 193.846C643.634 194.363 642.469 194.323 641.547 193.74L612.809 175.576H567.885C567.258 175.576 566.646 175.382 566.136 175.019L552.225 165.15C550.877 164.195 550.547 162.336 551.48 160.974L582.03 116.411C582.736 115.381 584.002 114.889 585.22 115.177L687.68 139.369C688.762 139.625 689.617 140.453 689.906 141.527L720.32 254.683C720.689 256.058 720.049 257.504 718.785 258.156C718.344 258.382 717.87 258.492 717.4 258.492ZM691.458 219.199L710.851 242.756L684.533 144.84L585.847 121.539L558.151 161.939L568.849 169.528H613.684C614.255 169.528 614.816 169.69 615.3 169.996L643.284 187.682L661.378 177.933C662.764 177.184 664.493 177.627 665.349 178.95L691.458 219.199Z" fill="#0D1F2D"/>
<path d="M632.608 358.961C630.938 358.961 629.584 357.608 629.584 355.937V234.811L523.687 175.958L450.207 211.56C448.706 212.288 446.896 211.662 446.166 210.157C445.439 208.654 446.066 206.845 447.569 206.117L522.463 169.829C523.349 169.399 524.389 169.429 525.251 169.908L634.077 230.388C635.036 230.921 635.632 231.933 635.632 233.031V355.936C635.632 357.608 634.278 358.961 632.608 358.961Z" fill="#0D1F2D"/>
<path d="M430.722 352.581C436.382 412.321 409.242 469.448 369.088 469.448C328.935 469.448 301.795 412.32 307.455 352.581C312.237 302.11 339.548 266.604 369.088 266.604C398.629 266.604 425.941 302.11 430.722 352.581Z" fill="#FF6F3C"/>
<path d="M369.088 472.472C355.394 472.472 342.449 466.2 331.655 454.335C311.366 432.032 300.685 391.98 304.444 352.296C309.236 301.719 337.027 263.579 369.088 263.579C401.15 263.579 428.94 301.719 433.733 352.296C437.491 391.98 426.811 432.033 406.522 454.335C395.728 466.2 382.783 472.472 369.088 472.472ZM369.088 269.627C355.578 269.627 342.203 277.733 331.427 292.452C320.14 307.869 312.695 329.324 310.465 352.867C306.859 390.934 316.932 429.165 336.128 450.267C345.745 460.838 357.143 466.425 369.087 466.425C381.032 466.425 392.43 460.838 402.047 450.267C421.243 429.165 431.317 390.934 427.71 352.867C425.48 329.325 418.035 307.869 406.748 292.452C395.974 277.732 382.599 269.627 369.088 269.627Z" fill="#0D1F2D"/>
<path d="M369.088 547.141C367.418 547.141 366.064 545.788 366.064 544.117V320.313C366.064 318.643 367.418 317.289 369.088 317.289C370.759 317.289 372.112 318.643 372.112 320.313V544.117C372.112 545.788 370.759 547.141 369.088 547.141Z" fill="#0D1F2D"/>
<path d="M369.088 443.014C368.286 443.014 367.517 442.696 366.95 442.128L344.115 419.294C342.935 418.113 342.935 416.198 344.115 415.018C345.296 413.836 347.211 413.836 348.392 415.018L369.087 435.713L389.783 415.018C390.964 413.836 392.879 413.836 394.06 415.018C395.241 416.198 395.241 418.113 394.06 419.294L371.225 442.128C370.659 442.696 369.891 443.014 369.088 443.014Z" fill="#0D1F2D"/>
<path d="M369.089 410.733C368.315 410.733 367.54 410.437 366.951 409.847L344.117 387.014C342.935 385.833 342.935 383.918 344.117 382.738C345.298 381.556 347.213 381.556 348.393 382.738L369.09 403.433L389.786 382.738C390.966 381.555 392.882 381.557 394.063 382.738C395.244 383.918 395.243 385.833 394.063 387.014L371.229 409.847C370.636 410.437 369.862 410.733 369.089 410.733Z" fill="#0D1F2D"/>
<path d="M369.089 378.453C368.315 378.453 367.54 378.157 366.951 377.566L344.117 354.732C342.935 353.552 342.935 351.637 344.117 350.456C345.297 349.275 347.212 349.275 348.392 350.456L369.089 371.153L389.785 350.456C390.965 349.275 392.881 349.275 394.061 350.456C395.242 351.637 395.242 353.552 394.061 354.732L371.227 377.566C370.636 378.157 369.862 378.453 369.089 378.453Z" fill="#0D1F2D"/>
<path d="M369.089 346.171C368.315 346.171 367.54 345.876 366.951 345.285L344.117 322.451C342.935 321.271 342.935 319.355 344.117 318.175C345.297 316.994 347.212 316.994 348.392 318.175L369.089 338.871L389.785 318.176C390.965 316.995 392.881 316.995 394.061 318.176C395.242 319.356 395.242 321.272 394.061 322.452L371.227 345.286C370.636 345.876 369.862 346.171 369.089 346.171Z" fill="#0D1F2D"/>
<path d="M353.884 428.479C357.788 458.776 339.068 487.746 311.371 487.746C283.673 487.746 264.953 458.775 268.857 428.479C272.155 402.884 290.994 384.877 311.371 384.877C331.747 384.877 350.586 402.884 353.884 428.479Z" fill="#FFC93C"/>
<path d="M311.371 490.77C299.226 490.77 287.872 485.465 279.401 475.832C268.645 463.601 263.581 445.754 265.857 428.092C269.254 401.731 288.821 381.853 311.371 381.853C333.921 381.853 353.486 401.731 356.883 428.092C359.159 445.754 354.096 463.602 343.338 475.833C334.869 485.466 323.515 490.77 311.371 490.77ZM311.371 387.901C291.853 387.901 274.866 405.511 271.856 428.866C269.799 444.829 274.317 460.894 283.943 471.84C291.355 480.268 300.839 484.723 311.371 484.723C321.901 484.723 331.386 480.268 338.797 471.84C348.423 460.895 352.942 444.829 350.884 428.866C347.875 405.51 330.888 387.901 311.371 387.901Z" fill="#0D1F2D"/>
<path d="M311.371 547.142C309.7 547.142 308.347 545.789 308.347 544.118V399.786C308.347 398.115 309.7 396.762 311.371 396.762C313.041 396.762 314.395 398.115 314.395 399.786V544.119C314.395 545.788 313.041 547.142 311.371 547.142Z" fill="#0D1F2D"/>
<path d="M311.371 475.317C310.597 475.317 309.822 475.022 309.233 474.431L293.483 458.681C292.301 457.501 292.301 455.587 293.483 454.406C294.664 453.224 296.579 453.224 297.76 454.406L311.372 468.018L324.984 454.406C326.164 453.224 328.079 453.224 329.26 454.406C330.441 455.586 330.441 457.501 329.26 458.681L313.51 474.431C312.919 475.022 312.145 475.317 311.371 475.317Z" fill="#0D1F2D"/>
<path d="M311.37 453.051C310.568 453.051 309.799 452.732 309.231 452.165L293.481 436.414C292.301 435.233 292.301 433.318 293.481 432.138C294.662 430.956 296.577 430.958 297.758 432.138L311.37 445.75L324.981 432.138C326.163 430.957 328.078 430.957 329.258 432.138C330.44 433.318 330.44 435.233 329.258 436.414L313.508 452.165C312.942 452.732 312.173 453.051 311.37 453.051Z" fill="#0D1F2D"/>
<path d="M311.37 430.784C310.568 430.784 309.799 430.466 309.231 429.898L293.481 414.147C292.301 412.966 292.301 411.052 293.481 409.871C294.662 408.69 296.577 408.69 297.758 409.871L311.37 423.483L324.981 409.871C326.163 408.69 328.078 408.69 329.258 409.871C330.44 411.052 330.44 412.966 329.258 414.147L313.508 429.898C312.942 430.465 312.173 430.784 311.37 430.784Z" fill="#0D1F2D"/>
<path d="M883.35 369.577C875.127 360.04 872.976 347.995 877.222 336.868C879.426 331.092 880.634 324.815 880.634 318.25C880.634 289.726 857.826 266.604 829.691 266.604C801.556 266.604 778.748 289.727 778.748 318.25C778.748 324.815 779.956 331.092 782.16 336.868C786.405 347.997 784.255 360.041 776.032 369.577C766.041 381.165 760.034 396.041 760.034 412.268C760.034 449.246 791.221 479.223 829.692 479.223C868.163 479.223 899.35 449.246 899.35 412.268C899.349 396.041 893.342 381.165 883.35 369.577Z" fill="#FF6F3C"/>
<path d="M829.691 482.247C789.614 482.247 757.01 450.853 757.01 412.267C757.01 395.978 762.952 380.116 773.742 367.601C781.192 358.963 783.23 348.153 779.335 337.944C776.939 331.664 775.725 325.037 775.725 318.249C775.725 288.103 799.935 263.578 829.692 263.578C859.45 263.578 883.66 288.104 883.66 318.249C883.66 325.038 882.446 331.666 880.049 337.945C876.155 348.153 878.193 358.963 885.642 367.601C896.432 380.114 902.375 395.976 902.375 412.267C902.373 450.854 869.767 482.247 829.691 482.247ZM829.691 269.627C803.268 269.627 781.772 291.439 781.772 318.25C781.772 324.299 782.852 330.2 784.985 335.789C789.699 348.141 787.27 361.177 778.322 371.551C768.479 382.968 763.058 397.427 763.058 412.268C763.058 447.52 792.949 476.2 829.691 476.2C866.433 476.2 896.325 447.52 896.325 412.268C896.325 397.427 890.904 382.968 881.06 371.551C881.059 371.551 881.059 371.551 881.059 371.551C872.113 361.177 869.684 348.142 874.397 335.789C876.529 330.201 877.61 324.3 877.61 318.25C877.611 291.439 856.114 269.627 829.691 269.627Z" fill="#0D1F2D"/>
<path d="M829.691 548.753C828.021 548.753 826.667 547.399 826.667 545.729V301.024C826.667 299.354 828.021 298 829.691 298C831.361 298 832.715 299.354 832.715 301.024V545.729C832.715 547.399 831.361 548.753 829.691 548.753Z" fill="#0D1F2D"/>
<path d="M829.691 457.292C828.917 457.292 828.144 456.997 827.553 456.406L802.371 431.224C801.19 430.044 801.19 428.129 802.371 426.949C803.553 425.767 805.466 425.767 806.647 426.949L829.691 449.992L852.736 426.949C853.917 425.767 855.831 425.767 857.012 426.949C858.193 428.13 858.193 430.044 857.012 431.224L831.829 456.406C831.238 456.997 830.464 457.292 829.691 457.292Z" fill="#0D1F2D"/>
<path d="M829.691 421.692C828.889 421.692 828.12 421.373 827.553 420.806L802.371 395.623C801.19 394.442 801.19 392.527 802.371 391.347C803.553 390.166 805.466 390.166 806.647 391.347L829.691 414.391L852.736 391.347C853.917 390.166 855.831 390.166 857.012 391.347C858.193 392.527 858.193 394.443 857.012 395.623L831.829 420.806C831.262 421.373 830.493 421.692 829.691 421.692Z" fill="#0D1F2D"/>
<path d="M829.691 386.09C828.889 386.09 828.12 385.772 827.553 385.204L802.371 360.021C801.19 358.84 801.19 356.926 802.371 355.744C803.553 354.564 805.466 354.564 806.647 355.744L829.691 378.788L852.736 355.744C853.917 354.563 855.831 354.563 857.012 355.744C858.193 356.925 858.193 358.84 857.012 360.02L831.829 385.203C831.262 385.771 830.493 386.09 829.691 386.09Z" fill="#0D1F2D"/>
<path d="M829.691 350.488C828.889 350.488 828.12 350.169 827.553 349.602L802.371 324.419C801.19 323.238 801.19 321.323 802.371 320.142C803.553 318.962 805.466 318.962 806.647 320.142L829.691 343.187L852.736 320.142C853.917 318.961 855.831 318.961 857.012 320.142C858.193 321.322 858.193 323.237 857.012 324.418L831.829 349.601C831.262 350.169 830.493 350.488 829.691 350.488Z" fill="#0D1F2D"/>
<path d="M81.144 123.98C65.364 120.655 46.257 147.881 38.3 168.771C24.3414 205.418 32.661 254.16 49.985 258.354C68.417 262.817 102.718 218.224 102.566 174.614C102.5 155.591 95.843 127.075 81.144 123.98Z" fill="#FF9A3C"/>
<path d="M873.658 545.512H3.39111V601.882L39.466 642.568L46.375 610.997L95.468 662.325C123.137 658.564 150.808 654.804 178.478 651.043C199.875 613.347 209.191 603.462 212.898 604.969C220.347 607.997 204.444 656.764 219.164 664.605C227.544 669.069 241.432 657.916 246.607 663.714C249.772 667.26 245.607 672.585 248.726 678.636C252.354 685.675 262.457 687.137 268.344 687.989C287.664 690.784 304.693 683.36 314.099 678.168C324.818 670.912 335.537 663.657 346.255 656.402C353.869 652.366 377.154 641.295 406.869 646.531C448.007 653.78 468.579 686.487 471.757 691.729C492.665 691.729 513.573 691.729 534.482 691.729C541.947 683.244 549.413 674.759 556.878 666.272C595.749 677.018 634.622 687.764 673.493 698.51C701.747 695.685 730.002 692.859 758.256 690.034C763.159 682.771 768.062 675.508 772.965 668.247L829.692 664.298C829.692 664.298 839.983 668.247 839.983 652.453C839.983 636.66 845.905 626.79 845.905 626.79C845.905 626.79 836.034 609.023 841.956 603.1C847.878 597.178 847.878 597.178 847.878 597.178L873.658 545.512Z" fill="#FF6F3C"/>
<path d="M873.658 548.536H3.39118C1.72088 548.536 0.367188 547.183 0.367188 545.512C0.367188 543.842 1.72088 542.488 3.39118 542.488H873.658C875.328 542.488 876.682 543.842 876.682 545.512C876.682 547.183 875.328 548.536 873.658 548.536Z" fill="#02111B"/>
<path d="M567.885 548.536H408.633C406.963 548.536 405.609 547.183 405.609 545.512C405.609 543.842 406.963 542.488 408.633 542.488H567.885C569.556 542.488 570.909 543.842 570.909 545.512C570.909 547.183 569.556 548.536 567.885 548.536Z" fill="#02111B"/>
<path d="M772.964 391.827L601.482 299.649L430.856 391.827L408.633 545.513H795.185L772.964 391.827Z" fill="#F4646C"/>
<path opacity="0.23" d="M584.524 545.512V391.826H430.856L408.633 545.512H584.524Z" fill="#F4646C"/>
<path d="M526.329 545.73C526.329 545.73 537.331 524.425 546.061 520.978C564.859 513.555 553.441 505.561 553.441 505.561C553.441 505.561 526.931 481.548 507.247 434.275C513.556 471.293 517.547 536.948 526.329 545.73Z" fill="#F4536D"/>
<path d="M427.282 391.826L408.633 545.512H419.876L438.525 391.826H427.282Z" fill="#FA8F97"/>
<path d="M430.856 391.827H772.964L601.482 299.649L430.856 391.827Z" fill="#F4646C"/>
<path opacity="0.7" d="M605.948 306.507L764.672 391.827H772.964L601.482 299.649L430.856 391.827H448.014L605.948 306.507Z" fill="#FA8F97"/>
<path d="M772.964 391.827L601.482 299.649L571.797 391.827L567.885 545.513H795.185L772.964 391.827Z" fill="#DD4A58"/>
<path opacity="0.4" d="M772.964 391.827L601.482 299.649L597.828 310.996L748.2 391.827L770.423 545.513H795.185L772.964 391.827Z" fill="#C42C49"/>
<path opacity="0.4" d="M609.429 303.921L601.482 299.649L571.797 391.827L567.885 545.513H577.208L581.12 391.827L609.429 303.921Z" fill="#C42C49"/>
<path opacity="0.41" d="M795.185 545.512L772.964 391.826H571.797L567.885 545.512H795.185Z" fill="#02111B"/>
<path d="M795.185 548.537H567.885C567.07 548.537 566.29 548.208 565.72 547.623C565.152 547.04 564.842 546.251 564.862 545.436L568.774 391.75C568.781 391.461 568.831 391.176 568.919 390.9L598.604 298.723C598.878 297.868 599.519 297.181 600.352 296.845C601.184 296.509 602.123 296.562 602.913 296.986L774.396 389.164C775.241 389.617 775.82 390.445 775.957 391.394L798.178 545.08C798.304 545.949 798.046 546.829 797.471 547.493C796.897 548.156 796.062 548.537 795.185 548.537ZM570.987 542.489H791.693L770.189 393.769L603.248 304.032L574.809 392.339L570.987 542.489Z" fill="#02111B"/>
<path d="M772.964 394.851H430.856C429.471 394.851 428.263 393.91 427.923 392.567C427.585 391.225 428.2 389.824 429.418 389.165L600.044 296.988C600.938 296.505 602.017 296.504 602.913 296.985L774.395 389.162C775.616 389.819 776.235 391.221 775.896 392.564C775.557 393.908 774.35 394.851 772.964 394.851ZM442.816 388.803H760.951L601.486 303.084L442.816 388.803Z" fill="#02111B"/>
<path d="M496.237 391.826L480.973 545.73L523.782 545.512V498.024L496.237 391.826Z" fill="#02111B"/>
<path d="M480.971 548.754C480.12 548.754 479.309 548.396 478.735 547.766C478.159 547.133 477.877 546.285 477.962 545.433L493.227 391.529C493.372 390.071 494.541 388.926 496.002 388.813C497.486 388.707 498.795 389.651 499.164 391.069L526.709 497.265C526.773 497.513 526.806 497.768 526.806 498.024V545.512C526.806 547.177 525.461 548.527 523.798 548.536L480.988 548.754C480.982 548.754 480.976 548.754 480.971 548.754ZM497.57 409.014L484.312 542.689L520.758 542.503V498.41L497.57 409.014Z" fill="#02111B"/>
<path d="M496.237 391.826C496.237 391.826 514.06 477.137 546.061 509.139C528.062 517.094 523.782 545.512 523.782 545.512C523.782 545.512 512.593 523.11 505.287 482.233C501.853 463.02 496.237 391.826 496.237 391.826Z" fill="#FAB56A"/>
<g opacity="0.45">
<path opacity="0.45" d="M498.239 400.508C496.915 395.068 496.238 391.826 496.238 391.826C496.238 391.826 496.348 393.219 496.546 395.665C497.047 397.127 497.611 398.743 498.239 400.508Z" fill="#FAB56A"/>
<path opacity="0.45" d="M543.123 510.697C544.061 510.12 545.036 509.592 546.061 509.139C545.669 508.747 545.281 508.34 544.893 507.933C544.262 508.828 543.675 509.753 543.123 510.697Z" fill="#FAB56A"/>
<path opacity="0.45" d="M511.042 476.319C507.766 464.426 501.714 431.935 497.705 409.634C499.605 432.037 502.951 469.161 505.287 482.232C512.593 523.11 523.783 545.512 523.783 545.512C523.783 545.512 525.163 536.369 529.64 527.003C524.778 516.951 517.535 499.889 511.042 476.319Z" fill="#FAB56A"/>
</g>
<path d="M523.781 548.536C522.649 548.536 521.595 547.9 521.077 546.864C520.612 545.933 509.608 523.604 502.309 482.764C498.888 463.627 493.452 394.978 493.222 392.066C493.097 390.486 494.212 389.078 495.778 388.838C497.34 388.598 498.829 389.607 499.183 391.152C499.391 392.058 520.248 481.978 548.078 506.887C548.843 507.572 549.208 508.599 549.048 509.613C548.888 510.628 548.223 511.49 547.284 511.906C530.994 519.106 526.813 545.695 526.772 545.963C526.576 547.266 525.557 548.294 524.254 548.499C524.097 548.524 523.938 548.536 523.781 548.536ZM502.072 424.923C503.966 446.148 506.44 471.5 508.263 481.701C512.881 507.539 519.117 526.019 522.968 535.892C525.565 527.335 530.888 514.96 541.019 508.436C529.67 496.422 518.395 474.028 507.457 441.762C505.479 435.929 503.678 430.242 502.072 424.923Z" fill="#02111B"/>
<path d="M795.185 548.536H408.633C407.755 548.536 406.922 548.155 406.347 547.492C405.773 546.829 405.515 545.949 405.641 545.079L427.862 391.393C427.999 390.447 428.576 389.62 429.417 389.165L600.044 296.988C600.938 296.505 602.016 296.504 602.912 296.985L774.394 389.162C775.24 389.616 775.819 390.444 775.956 391.393L798.177 545.079C798.303 545.948 798.045 546.828 797.47 547.492C796.897 548.155 796.062 548.536 795.185 548.536ZM412.126 542.488H791.693L770.189 393.769L601.486 303.084L433.631 393.765L412.126 542.488Z" fill="#02111B"/>
<path d="M772.964 394.851H430.856C429.471 394.851 428.263 393.91 427.923 392.567C427.585 391.225 428.2 389.824 429.418 389.165L600.044 296.988C600.938 296.505 602.017 296.504 602.913 296.985L774.395 389.162C775.616 389.819 776.235 391.221 775.896 392.564C775.557 393.908 774.35 394.851 772.964 394.851ZM442.816 388.803H760.951L601.486 303.084L442.816 388.803Z" fill="#02111B"/>
<path d="M216.754 545.512H128.05C120.257 545.512 113.938 539.194 113.938 531.4C113.938 523.606 120.257 517.288 128.05 517.288H216.754C224.548 517.288 230.866 523.606 230.866 531.4C230.866 539.194 224.548 545.512 216.754 545.512Z" fill="#A3533B"/>
<g opacity="0.42">
<path opacity="0.42" d="M216.916 534.781C214.027 534.781 210.993 533.236 209.286 532.366C206.733 531.066 205.317 529.688 204.181 528.58C203.057 527.486 202.17 526.622 200.599 526.165C197.461 525.248 193.534 526.596 188.925 530.157C188.704 530.328 188.389 530.287 188.218 530.066C188.048 529.845 188.088 529.53 188.309 529.36C193.187 525.59 197.418 524.192 200.882 525.196C202.693 525.725 203.709 526.714 204.884 527.859C206.03 528.973 207.327 530.237 209.745 531.469C211.954 532.593 216.55 534.934 219.614 533.086C222.331 531.449 223.344 526.791 222.077 521.759C222.009 521.489 222.173 521.216 222.443 521.147C222.714 521.085 222.987 521.244 223.055 521.513C224.451 527.058 223.277 532.056 220.136 533.95C219.142 534.548 218.04 534.781 216.916 534.781Z" fill="#02111B"/>
</g>
<g opacity="0.42">
<path opacity="0.42" d="M160.588 538.65C159.056 538.65 158.01 538.375 157.002 538.016C154.117 536.991 151.342 534.438 148.658 531.97C146.097 529.613 143.45 527.177 140.71 526.041C140.453 525.935 140.331 525.64 140.437 525.383C140.544 525.125 140.84 525.001 141.095 525.109C144 526.314 146.715 528.812 149.341 531.227C152.07 533.738 154.648 536.11 157.339 537.066C160.088 538.041 163.433 538.347 179.069 532.782C179.328 532.685 179.618 532.826 179.713 533.088C179.806 533.351 179.669 533.639 179.406 533.732C168.729 537.534 163.673 538.65 160.588 538.65Z" fill="#02111B"/>
</g>
<g opacity="0.42">
<path opacity="0.42" d="M161.397 544.017C160.565 544.017 159.76 543.953 159 543.809C158.727 543.757 158.546 543.494 158.599 543.22C158.651 542.947 158.918 542.768 159.188 542.819C166.636 544.225 179.148 537.367 179.274 537.297C179.517 537.164 179.823 537.25 179.959 537.493C180.095 537.737 180.006 538.044 179.763 538.179C179.287 538.441 169.113 544.017 161.397 544.017Z" fill="#02111B"/>
</g>
<g opacity="0.42">
<path opacity="0.42" d="M195.817 546.176C191.785 546.176 187.163 545.681 185 543.672C184.162 542.893 183.736 541.939 183.736 540.839C183.736 536.078 195.181 532.425 196.579 531.997C202.146 529.849 205.668 533.396 209.397 537.148L210.022 537.775C211.548 539.301 211.506 540.599 211.2 541.418C210.136 544.281 204.519 545.683 200.033 546.015C198.831 546.103 197.368 546.176 195.817 546.176ZM199.814 532.362C198.916 532.362 197.96 532.543 196.926 532.943C196.915 532.948 196.903 532.952 196.891 532.956C193.512 533.988 184.743 537.417 184.743 540.839C184.743 541.658 185.052 542.344 185.686 542.933C187.669 544.774 192.87 545.536 199.959 545.009C205.306 544.615 209.539 542.994 210.256 541.067C210.549 540.278 210.231 539.409 209.309 538.488L208.682 537.858C205.796 534.954 203.222 532.362 199.814 532.362ZM196.744 532.473H196.754H196.744Z" fill="#02111B"/>
</g>
<g opacity="0.46">
<path opacity="0.46" d="M122.483 541.461C119.947 541.461 117.031 541.066 115.322 539.529C114.354 538.657 113.862 537.511 113.862 536.125C113.862 531.376 122.293 527.573 122.897 527.306C126.974 525.067 129.601 528.847 132.143 532.502L132.58 533.128C133.825 534.906 133.596 536.354 133.185 537.256C132.233 539.348 129.268 540.896 125.451 541.298C124.622 541.386 123.589 541.461 122.483 541.461ZM125.248 527.662C124.66 527.662 124.036 527.829 123.365 528.2C123.351 528.208 123.337 528.216 123.323 528.222C123.238 528.259 114.871 531.961 114.871 536.126C114.871 537.23 115.24 538.099 115.998 538.781C118.16 540.729 122.783 540.567 125.346 540.297C128.758 539.939 131.476 538.581 132.269 536.84C132.708 535.875 132.536 534.821 131.756 533.708L131.317 533.078C129.326 530.214 127.55 527.662 125.248 527.662ZM123.121 527.76H123.131H123.121Z" fill="#A3533B"/>
</g>
<g opacity="0.42">
<path opacity="0.42" d="M143.562 542.666C142.325 542.666 141.027 542.456 140.225 541.734C139.733 541.292 139.484 540.713 139.484 540.016C139.484 537.769 143.129 536.083 143.647 535.853C145.666 534.753 146.962 536.609 148.101 538.248L148.294 538.525C148.922 539.422 148.8 540.167 148.588 540.634C148.125 541.651 146.723 542.401 144.932 542.588C144.507 542.634 144.04 542.665 143.562 542.666ZM144.826 536.537C144.603 536.537 144.37 536.606 144.116 536.747C144.102 536.755 144.088 536.762 144.074 536.768C143.145 537.174 140.493 538.643 140.493 540.017C140.493 540.422 140.626 540.739 140.901 540.986C141.543 541.564 142.976 541.781 144.829 541.588C146.223 541.441 147.367 540.891 147.673 540.217C147.826 539.882 147.76 539.519 147.471 539.105L147.275 538.825C146.242 537.338 145.588 536.537 144.826 536.537ZM143.872 536.305H143.882H143.872Z" fill="#02111B"/>
</g>
<g opacity="0.42">
<path opacity="0.42" d="M161.747 534.458C161.563 534.458 161.386 534.452 161.213 534.44C159.205 534.299 155.852 533.779 155.852 531.865C155.852 529.716 159.191 528.077 159.931 527.739C160.777 526.784 163.492 524.139 167.369 524.396C170.377 524.591 173.956 526.583 173.886 528.763C173.821 530.833 170.641 531.996 166.96 533.342C164.934 534.084 163.183 534.458 161.747 534.458ZM166.866 525.388C163.464 525.388 161.08 527.951 160.621 528.484C160.572 528.541 160.51 528.587 160.44 528.617C159.512 529.023 156.86 530.492 156.86 531.866C156.86 532.595 158.716 533.256 161.273 533.435C163.005 533.548 165.136 532.938 166.614 532.397C169.673 531.279 172.836 530.122 172.88 528.733C172.925 527.322 170.006 525.579 167.305 525.403C167.158 525.393 167.012 525.388 166.866 525.388ZM160.239 528.155H160.249H160.239Z" fill="#02111B"/>
</g>
<g opacity="0.42">
<path opacity="0.42" d="M202.053 544.573C201.061 544.573 199.916 544.402 198.651 544.215L198.303 544.162C195.262 543.714 190.666 543.034 190.666 540.516C190.666 537.112 196.705 534.438 196.964 534.325C197 534.308 197.039 534.298 197.078 534.291C197.256 534.259 201.419 533.573 203.965 536.533C205.663 538.506 206.464 541.784 204.952 543.519C204.258 544.316 203.272 544.573 202.053 544.573ZM197.31 535.275C195.687 535.997 191.676 538.264 191.676 540.516C191.676 542.165 196.084 542.816 198.452 543.165L198.8 543.218C201.411 543.607 203.297 543.888 204.194 542.858C205.312 541.574 204.593 538.806 203.203 537.191C201.146 534.802 197.806 535.201 197.31 535.275Z" fill="#02111B"/>
</g>
<g opacity="0.42">
<path opacity="0.42" d="M197.124 542.977C196.143 542.977 195.11 542.809 194.465 542.229C194.066 541.87 193.855 541.38 193.855 540.815C193.855 539.014 196.712 537.684 197.137 537.495C198.791 536.598 199.862 538.143 200.724 539.384L200.874 539.598C201.391 540.336 201.288 540.954 201.111 541.341C200.736 542.164 199.618 542.768 198.192 542.917C197.86 542.953 197.496 542.977 197.124 542.977ZM198.088 538.247C197.934 538.247 197.775 538.293 197.605 538.389C197.591 538.397 197.577 538.404 197.562 538.41C196.519 538.867 194.863 539.924 194.863 540.816C194.863 541.1 194.951 541.31 195.14 541.481C195.612 541.906 196.687 542.065 198.088 541.917C199.111 541.81 199.977 541.401 200.194 540.925C200.231 540.845 200.342 540.599 200.048 540.178L199.897 539.962C199.122 538.845 198.637 538.247 198.088 538.247ZM197.36 537.948H197.37H197.36Z" fill="#02111B"/>
</g>
<path d="M216.755 548.536H128.051C118.602 548.536 110.915 540.849 110.915 531.4C110.915 521.951 118.602 514.264 128.051 514.264H216.755C226.204 514.264 233.891 521.951 233.891 531.4C233.891 540.849 226.204 548.536 216.755 548.536ZM128.051 520.312C121.937 520.312 116.963 525.286 116.963 531.4C116.963 537.513 121.937 542.488 128.051 542.488H216.755C222.868 542.488 227.843 537.513 227.843 531.4C227.843 525.286 222.868 520.312 216.755 520.312H128.051Z" fill="#02111B"/>
<path d="M95.468 548.536C93.798 548.536 92.444 547.182 92.444 545.512V386.582C92.444 384.911 93.798 383.558 95.468 383.558C97.138 383.558 98.492 384.911 98.492 386.582V545.512C98.492 547.182 97.137 548.536 95.468 548.536Z" fill="#02111B"/>
<path d="M95.468 389.605C92.318 389.605 89.361 387.89 87.559 385.019L77.619 369.181C76.731 367.767 77.158 365.9 78.572 365.012C79.987 364.125 81.854 364.55 82.742 365.965L92.681 381.803C93.381 382.917 94.396 383.556 95.468 383.556C96.538 383.556 97.553 382.917 98.253 381.803L108.193 365.965C109.081 364.55 110.946 364.125 112.362 365.012C113.776 365.9 114.203 367.766 113.315 369.181L103.375 385.019C101.573 387.89 98.617 389.605 95.468 389.605Z" fill="#02111B"/>
<path d="M252.592 548.536C250.922 548.536 249.568 547.182 249.568 545.512V386.582C249.568 384.911 250.922 383.558 252.592 383.558C254.262 383.558 255.616 384.911 255.616 386.582V545.512C255.616 547.182 254.262 548.536 252.592 548.536Z" fill="#02111B"/>
<path d="M252.592 389.605C249.442 389.605 246.485 387.891 244.683 385.019L234.743 369.181C233.855 367.767 234.282 365.9 235.697 365.012C237.112 364.125 238.978 364.55 239.866 365.966L249.805 381.803C250.505 382.917 251.52 383.556 252.592 383.556C253.663 383.556 254.677 382.917 255.377 381.803L265.318 365.966C266.206 364.55 268.071 364.122 269.487 365.012C270.901 365.9 271.328 367.766 270.44 369.181L260.499 385.019C258.697 387.891 255.742 389.605 252.592 389.605Z" fill="#02111B"/>
<path d="M267.879 384.232H80.18C77.954 384.232 76.148 382.427 76.148 380.2C76.148 377.973 77.954 376.168 80.18 376.168H267.879C270.106 376.168 271.911 377.973 271.911 380.2C271.911 382.427 270.106 384.232 267.879 384.232Z" fill="#02111B"/>
<path d="M152.032 492.873C154.905 497.53 155.893 497.703 155.503 506.734C154.74 524.405 162.884 532.652 172.601 535.176C184.179 538.184 189.823 534.785 194.694 530.436C214.306 512.93 197.412 490.015 195.579 488.379C195.579 495.286 195.087 505.034 190.49 506.34C193.544 493.012 182.685 479.336 172.402 475.212C178.06 488.709 169.094 494.568 173.187 510.593C170.59 499.767 156.218 493.544 152.032 492.873Z" fill="#FFB839"/>
<path opacity="0.47" d="M159.039 501.598C161.299 505.262 162.077 505.398 161.771 512.504C161.171 526.406 167.578 532.895 175.224 534.882C184.333 537.247 188.774 534.574 192.606 531.153C208.036 517.38 194.744 499.351 193.303 498.063C193.303 503.497 192.916 511.167 189.298 512.195C191.701 501.708 183.157 490.948 175.067 487.703C179.519 498.322 172.465 502.932 175.684 515.541C173.64 507.023 162.332 502.128 159.039 501.598Z" fill="#ED4307"/>
<path opacity="0.47" d="M158.479 505.764C160.739 509.429 157.941 515.088 161.13 521.446C167.705 534.553 167.578 532.896 175.224 534.883C184.333 537.248 188.774 534.575 192.607 531.154C208.036 517.381 194.745 499.352 193.303 498.064C193.303 503.498 192.916 511.168 189.299 512.195C191.702 501.709 186.152 490.949 178.06 487.704C180.128 497.001 172.464 502.933 175.685 515.542C173.64 507.023 161.772 506.293 158.479 505.764Z" fill="#FF4729"/>
<path opacity="0.46" d="M178.417 532.216C171.925 530.802 167.178 525.305 167.563 516.377C167.616 515.147 167.633 514.105 167.613 513.199C169.954 514.823 177.737 520.357 178.417 522.949V520.458C177.304 515.955 179.226 510.255 179.877 506.993C180.181 505.465 180.502 503.854 180.626 502.103C183.779 505.585 187.473 513.143 187.473 517.747L187.245 521.029C187.245 521.029 187.926 519.971 189.34 519.382C190.754 518.792 192.902 517.237 193.821 515.166C194.141 516.574 194.318 518.067 194.254 519.587C194.083 523.586 192.339 527.015 188.917 530.069C186.653 532.091 181.774 532.946 178.417 532.216Z" fill="#FFB839"/>
<path d="M139.779 430.094C141.36 445.729 156.087 461.007 174.029 461.007C191.972 461.007 206.698 445.729 208.279 430.094H139.779Z" fill="#FEF9EF"/>
<path d="M149.99 430.094H139.78C141.361 445.729 156.088 461.007 174.03 461.007C175.765 461.007 177.469 460.861 179.136 460.589C163.573 458.044 151.418 444.217 149.99 430.094Z" fill="#B2B2B2"/>
<path d="M174.029 464.031C153.777 464.031 138.414 446.64 136.772 430.398C136.686 429.547 136.963 428.699 137.537 428.066C138.11 427.433 138.925 427.07 139.781 427.07H208.28C209.135 427.07 209.95 427.432 210.524 428.066C211.097 428.7 211.376 429.548 211.289 430.398C209.646 446.64 194.282 464.031 174.029 464.031ZM143.348 433.117C146.285 445.676 158.426 457.983 174.029 457.983C189.632 457.983 201.773 445.676 204.711 433.117H143.348Z" fill="#02111B"/>
<path d="M174.029 434.371C192.945 434.371 208.279 432.456 208.279 430.093C208.279 427.731 192.945 425.815 174.029 425.815C155.113 425.815 139.779 427.731 139.779 430.093C139.779 432.456 155.113 434.371 174.029 434.371Z" fill="#FAB56A"/>
<path d="M174.029 437.395C164.76 437.395 156.025 436.942 149.437 436.119C141.406 435.116 136.756 433.808 136.756 430.093C136.756 426.377 141.406 425.071 149.437 424.067C156.026 423.245 164.76 422.791 174.029 422.791C183.299 422.791 192.033 423.244 198.622 424.067C206.653 425.07 211.303 426.377 211.303 430.093C211.303 433.808 206.653 435.115 198.622 436.119C192.033 436.942 183.299 437.395 174.029 437.395ZM206.015 431.818H206.025H206.015ZM150.068 430.094C155.485 430.779 163.526 431.347 174.029 431.347C184.533 431.347 192.574 430.779 197.991 430.094C192.574 429.409 184.533 428.841 174.029 428.841C163.526 428.841 155.485 429.409 150.068 430.094Z" fill="#02111B"/>
<path d="M139.78 437.461C135.717 437.461 132.412 434.157 132.412 430.094C132.412 426.031 135.717 422.727 139.78 422.727C143.842 422.727 147.147 426.031 147.147 430.094C147.147 434.157 143.842 437.461 139.78 437.461ZM139.78 428.775C139.052 428.775 138.46 429.366 138.46 430.094C138.46 430.822 139.052 431.413 139.78 431.413C140.507 431.413 141.099 430.822 141.099 430.094C141.099 429.366 140.507 428.775 139.78 428.775Z" fill="#02111B"/>
<path d="M208.279 437.461C204.217 437.461 200.912 434.157 200.912 430.094C200.912 426.031 204.217 422.727 208.279 422.727C212.341 422.727 215.647 426.031 215.647 430.094C215.647 434.157 212.341 437.461 208.279 437.461ZM208.279 428.775C207.551 428.775 206.96 429.366 206.96 430.094C206.96 430.822 207.551 431.413 208.279 431.413C209.007 431.413 209.599 430.822 209.599 430.094C209.599 429.366 209.007 428.775 208.279 428.775Z" fill="#02111B"/>
<path d="M209.186 427.766C209.071 427.766 208.954 427.756 208.836 427.736C207.74 427.546 207.006 426.5 207.197 425.404C208.085 420.324 208.099 413.026 203.125 407.107C197.742 400.703 187.954 397.456 174.029 397.456C160.105 397.456 150.316 400.704 144.933 407.107C139.959 413.027 139.974 420.324 140.861 425.404C141.052 426.501 140.318 427.546 139.222 427.736C138.126 427.929 137.081 427.195 136.889 426.098C135.404 417.603 137.119 410.14 141.847 404.513C148.031 397.153 158.859 393.423 174.029 393.423C189.199 393.423 200.027 397.153 206.211 404.513C210.939 410.139 212.655 417.603 211.169 426.098C210.998 427.077 210.148 427.766 209.186 427.766Z" fill="#02111B"/>
<path d="M174.712 387.206C170.375 387.206 166.847 383.678 166.847 379.341C166.847 375.005 170.375 371.477 174.712 371.477C179.048 371.477 182.576 375.005 182.576 379.341C182.577 383.678 179.049 387.206 174.712 387.206ZM174.712 377.526C173.71 377.526 172.895 378.341 172.895 379.342C172.895 380.344 173.711 381.159 174.712 381.159C175.713 381.159 176.528 380.344 176.528 379.342C176.529 378.34 175.714 377.526 174.712 377.526Z" fill="#02111B"/>
<path d="M169.871 387.206C165.535 387.206 162.007 383.678 162.007 379.341C162.007 375.005 165.535 371.477 169.871 371.477C174.208 371.477 177.736 375.005 177.736 379.341C177.736 383.678 174.208 387.206 169.871 387.206ZM169.871 377.526C168.869 377.526 168.055 378.341 168.055 379.342C168.055 380.344 168.87 381.159 169.871 381.159C170.872 381.159 171.688 380.344 171.688 379.342C171.688 378.34 170.873 377.526 169.871 377.526Z" fill="#02111B"/>
<path d="M175.231 400.375C172.559 400.375 170.386 398.201 170.386 395.529C170.386 392.859 172.559 390.685 175.231 390.685C177.902 390.685 180.076 392.858 180.076 395.529C180.076 398.2 177.902 400.375 175.231 400.375ZM175.231 394.717C174.783 394.717 174.418 395.08 174.418 395.529C174.418 395.978 174.783 396.343 175.231 396.343C175.679 396.343 176.044 395.978 176.044 395.529C176.044 395.08 175.679 394.717 175.231 394.717Z" fill="#02111B"/>
<path d="M171.201 400.375C168.53 400.375 166.356 398.201 166.356 395.529C166.356 392.859 168.53 390.685 171.201 390.685C173.872 390.685 176.045 392.858 176.045 395.529C176.045 398.2 173.872 400.375 171.201 400.375ZM171.201 394.717C170.753 394.717 170.388 395.08 170.388 395.529C170.388 395.978 170.753 396.343 171.201 396.343C171.648 396.343 172.013 395.978 172.013 395.529C172.013 395.08 171.648 394.717 171.201 394.717Z" fill="#02111B"/>
<path d="M171.201 405.988C170.088 405.988 169.185 405.085 169.185 403.972L169.177 403.821C169.111 402.776 169.155 401.453 170.511 398.984C171.237 397.663 171.377 394.951 171.3 393.273C168.578 387.936 172.091 381.162 172.246 380.869C172.766 379.884 173.986 379.507 174.971 380.028C175.954 380.549 176.331 381.766 175.813 382.749C175.022 384.263 173.339 388.815 175.022 391.68C175.177 391.943 175.27 392.238 175.293 392.542C175.337 393.088 175.668 397.97 174.045 400.923C173.137 402.575 173.174 403.148 173.2 403.566C173.209 403.711 173.216 403.844 173.216 403.97C173.217 405.085 172.314 405.988 171.201 405.988Z" fill="#02111B"/>
<path d="M128.05 545.512C135.844 545.512 142.162 539.194 142.162 531.4C142.162 523.606 135.844 517.288 128.05 517.288C120.257 517.288 113.938 523.606 113.938 531.4C113.938 539.194 120.257 545.512 128.05 545.512Z" fill="#B75A44"/>
<path d="M128.051 548.536C118.602 548.536 110.915 540.849 110.915 531.4C110.915 521.951 118.602 514.264 128.051 514.264C137.5 514.264 145.187 521.951 145.187 531.4C145.187 540.849 137.5 548.536 128.051 548.536ZM128.051 520.312C121.937 520.312 116.963 525.286 116.963 531.4C116.963 537.513 121.937 542.488 128.051 542.488C134.164 542.488 139.139 537.513 139.139 531.4C139.139 525.286 134.164 520.312 128.051 520.312Z" fill="#02111B"/>
<g opacity="0.61">
<path opacity="0.61" d="M127.681 539.601C124.021 539.601 121.043 536.098 121.043 531.794C121.043 527.489 124.021 523.986 127.681 523.986C131.341 523.986 134.319 527.489 134.319 531.794C134.319 533.455 133.883 535.041 133.057 536.378C132.911 536.615 132.601 536.686 132.364 536.542C132.127 536.395 132.053 536.085 132.2 535.848C132.927 534.671 133.311 533.269 133.311 531.795C133.311 528.046 130.785 524.995 127.681 524.995C124.576 524.995 122.051 528.046 122.051 531.795C122.051 535.545 124.577 538.594 127.681 538.594C128.654 538.594 129.613 538.289 130.456 537.711C130.685 537.555 130.999 537.612 131.156 537.841C131.313 538.071 131.256 538.385 131.026 538.542C130.015 539.234 128.859 539.601 127.681 539.601Z" fill="#02111B"/>
</g>
<g opacity="0.61">
<path opacity="0.61" d="M127.681 536.284C125.413 536.284 123.566 534.121 123.566 531.464C123.566 528.805 125.412 526.643 127.681 526.643C129.957 526.643 132.311 528.253 132.311 530.948C132.311 533.591 129.975 536.284 127.681 536.284ZM127.681 527.65C125.968 527.65 124.574 529.36 124.574 531.463C124.574 533.565 125.967 535.275 127.681 535.275C129.407 535.275 131.303 533.009 131.303 530.946C131.303 528.882 129.462 527.65 127.681 527.65Z" fill="#02111B"/>
</g>
<g opacity="0.61">
<path opacity="0.61" d="M127.68 532.926C126.63 532.926 125.776 532.038 125.776 530.947C125.776 529.857 126.631 528.969 127.68 528.969C128.263 528.931 129.395 529.155 129.751 530.152C129.845 530.414 129.709 530.702 129.445 530.796C129.182 530.892 128.895 530.753 128.801 530.491C128.608 529.947 127.715 529.979 127.703 529.976C127.187 529.977 126.784 530.412 126.784 530.947C126.784 531.483 127.187 531.918 127.68 531.918C127.959 531.918 128.184 532.144 128.184 532.422C128.184 532.7 127.959 532.926 127.68 532.926Z" fill="#02111B"/>
</g>
</svg>
