<svg width="512" height="512" viewBox="0 0 512 512" fill="none" xmlns="http://www.w3.org/2000/svg">
<path d="M147.976 395.304C143.192 385.657 139.668 375.393 137.595 364.89C133.906 346.192 134.669 327.324 139.863 308.809L152.116 265.13L166.313 214.522L198.829 248.475L230.586 197.852L256 157.341L281.413 197.851L313.17 248.474L345.686 214.521L359.883 265.129L372.136 308.808C377.33 327.323 378.093 346.191 374.404 364.889C372.332 375.392 368.807 385.657 364.023 395.303C417.253 353.308 444.682 281.233 424.544 209.446L400.874 125.071L356.859 171.031L256 10.254L155.14 171.031L111.125 125.071L87.455 209.446C67.317 281.234 94.746 353.31 147.976 395.304V395.304Z" fill="#FF6F3C"/>
<path d="M343.252 316.912L330.999 273.233L308.214 297.025L256 213.794L203.787 297.025L181.002 273.233L168.749 316.912C152.773 373.862 194.617 431.174 253.756 432.234C255.253 432.261 256.749 432.261 258.246 432.234C317.384 431.174 359.228 373.862 343.252 316.912V316.912Z" fill="#FF6F3C"/>
<path d="M81.96 419.747C61.338 427.668 51.041 450.807 58.963 471.43L60.748 476.078C68.669 496.7 91.808 506.997 112.431 499.075L217.313 458.789C179.009 451.674 143.832 433.738 115.481 406.871L81.96 419.747Z" fill="#FF6F3C"/>
<path d="M430.04 419.747L396.519 406.871C368.168 433.738 332.991 451.674 294.687 458.789L399.569 499.075C420.191 506.996 443.331 496.7 451.252 476.078L453.037 471.43C460.959 450.807 450.663 427.668 430.04 419.747Z" fill="#FF6F3C"/>
<path d="M472 351.215H438.259C433.067 361.308 427.057 370.985 420.289 380.081C418.996 381.819 417.674 383.528 416.335 385.217L440.798 391.741C458.252 398.445 472.051 411.546 479.653 428.628C480.572 430.694 481.383 432.79 482.094 434.907C499.298 430.435 512 414.799 512 396.195V391.216C512 369.124 494.091 351.215 472 351.215V351.215Z" fill="#FF6F3C"/>
<path d="M96.73 386.528C95.025 384.414 93.343 382.275 91.712 380.082C84.944 370.986 78.934 361.309 73.742 351.216H40C17.909 351.216 0 369.125 0 391.216V396.195C0 414.8 12.702 430.435 29.907 434.908C30.618 432.791 31.429 430.696 32.348 428.629C39.949 411.546 53.748 398.446 71.203 391.742L96.73 386.528Z" fill="#FF6F3C"/>
</svg>
